<svg width="26" height="17" viewBox="0 0 26 17" fill="none" xmlns="http://www.w3.org/2000/svg">
<g clip-path="url(#clip0_75_2)">
<path d="M25.4583 4.33333H23.8333V2.70833C23.8333 2.56467 23.7763 2.4269 23.6747 2.32532C23.5731 2.22374 23.4353 2.16667 23.2917 2.16667H21.6667V0.541667C21.6667 0.398008 21.6096 0.260233 21.508 0.158651C21.4064 0.0570683 21.2687 0 21.125 0L0.541667 0C0.398008 0 0.260233 0.0570683 0.158651 0.158651C0.0570683 0.260233 0 0.398008 0 0.541667L0 11.2775C0 11.4212 0.0570683 11.5589 0.158651 11.6605C0.260233 11.7621 0.398008 11.8192 0.541667 11.8192H2.16667V13.4442C2.16667 13.5878 2.22374 13.7256 2.32532 13.8272C2.4269 13.9288 2.56467 13.9858 2.70833 13.9858H4.33333V15.6108C4.33333 15.7545 4.3904 15.8923 4.49198 15.9939C4.59357 16.0954 4.73134 16.1525 4.875 16.1525H25.4583C25.602 16.1525 25.7398 16.0954 25.8414 15.9939C25.9429 15.8923 26 15.7545 26 15.6108V4.875C26 4.73134 25.9429 4.59357 25.8414 4.49198C25.7398 4.3904 25.602 4.33333 25.4583 4.33333ZM17.1167 10.7358H4.55C4.4303 9.8586 4.02654 9.04472 3.4005 8.41867C2.77445 7.79262 1.96057 7.38887 1.08333 7.26917V4.55C1.96057 4.4303 2.77445 4.02654 3.4005 3.4005C4.02654 2.77445 4.4303 1.96057 4.55 1.08333H17.1167C17.2364 1.96057 17.6401 2.77445 18.2662 3.4005C18.8922 4.02654 19.7061 4.4303 20.5833 4.55V7.26917C19.7061 7.38887 18.8922 7.79262 18.2662 8.41867C17.6401 9.04472 17.2364 9.8586 17.1167 10.7358ZM20.5833 8.3525V10.7358H18.1892C18.3014 10.1435 18.5902 9.59897 19.0174 9.17365C19.4447 8.74832 19.9905 8.46209 20.5833 8.3525ZM20.5833 1.08333V3.4775C19.989 3.3672 19.4421 3.07936 19.0147 2.65196C18.5873 2.22455 18.2995 1.67763 18.1892 1.08333H20.5833ZM1.08333 1.08333H3.4775C3.3672 1.67763 3.07936 2.22455 2.65196 2.65196C2.22455 3.07936 1.67763 3.3672 1.08333 3.4775V1.08333ZM1.08333 8.3525C1.67616 8.46209 2.222 8.74832 2.64926 9.17365C3.07652 9.59897 3.36522 10.1435 3.4775 10.7358H1.08333V8.3525ZM3.25 11.83H21.125C21.2687 11.83 21.4064 11.7729 21.508 11.6714C21.6096 11.5698 21.6667 11.432 21.6667 11.2883V3.25H22.75V12.9025H3.25V11.83ZM24.9167 15.08H5.41667V13.9967H23.2917C23.4353 13.9967 23.5731 13.9396 23.6747 13.838C23.7763 13.7364 23.8333 13.5987 23.8333 13.455V5.41667H24.9167V15.08Z" fill="#222222"/>
<path d="M10.8331 2.23145C10.1068 2.23145 9.39675 2.44683 8.79281 2.85037C8.18888 3.25391 7.71816 3.82748 7.4402 4.49854C7.16224 5.1696 7.08951 5.90802 7.23121 6.62041C7.37292 7.33281 7.72269 7.98719 8.2363 8.5008C8.74991 9.0144 9.40428 9.36418 10.1167 9.50588C10.8291 9.64758 11.5675 9.57486 12.2386 9.29689C12.9096 9.01893 13.4832 8.54822 13.8867 7.94428C14.2903 7.34034 14.5056 6.6303 14.5056 5.90395C14.5028 4.93082 14.1149 3.99836 13.4268 3.31025C12.7387 2.62214 11.8063 2.2343 10.8331 2.23145ZM10.8331 8.49311C10.3211 8.49311 9.82047 8.34126 9.39468 8.05676C8.9689 7.77226 8.63704 7.36789 8.44107 6.89478C8.2451 6.42167 8.19383 5.90107 8.29373 5.39882C8.39363 4.89657 8.64023 4.43523 9.00233 4.07313C9.36443 3.71103 9.82578 3.46443 10.328 3.36453C10.8303 3.26463 11.3509 3.3159 11.824 3.51187C12.2971 3.70784 12.7015 4.0397 12.986 4.46548C13.2705 4.89127 13.4223 5.39186 13.4223 5.90395C13.4237 6.24487 13.3578 6.58272 13.2283 6.8981C13.0989 7.21349 12.9084 7.5002 12.6678 7.74177C12.4272 7.98335 12.1413 8.17503 11.8265 8.30583C11.5116 8.43662 11.1741 8.50395 10.8331 8.50395V8.49311Z" fill="#222222"/>
</g>
<defs>
<clipPath id="clip0_75_2">
<rect width="26" height="16.1633" fill="white"/>
</clipPath>
</defs>
</svg>
